<svg width="32" height="207" viewBox="0 0 32 207" fill="none" xmlns="http://www.w3.org/2000/svg">
<g opacity="0.5" filter="url(#filter0_b)">
<path d="M15.7504 205.428C16.5396 206.2 17.8059 206.187 18.5786 205.398L31.1711 192.536C31.9438 191.747 31.9304 190.48 31.1411 189.708C30.3518 188.935 29.0856 188.948 28.3129 189.738L17.1196 201.17L5.68671 189.977C4.89743 189.204 3.63117 189.218 2.85844 190.007C2.0857 190.796 2.09911 192.063 2.88839 192.835L15.7504 205.428ZM13.0001 1.02118L13.0414 4.925L17.0412 4.88264L16.9999 0.978824L13.0001 1.02118ZM13.1241 12.7326L13.2068 20.5403L17.2066 20.4979L17.1239 12.6903L13.1241 12.7326ZM13.2895 28.3479L13.3721 36.1556L17.3719 36.1132L17.2892 28.3056L13.2895 28.3479ZM13.4548 43.9632L13.5375 51.7708L17.5373 51.7285L17.4546 43.9208L13.4548 43.9632ZM13.6202 59.5785L13.7028 67.3861L17.7026 67.3438L17.6199 59.5361L13.6202 59.5785ZM13.7855 75.1938L13.8682 83.0014L17.868 82.959L17.7853 75.1514L13.7855 75.1938ZM13.9509 90.809L14.0335 98.6167L18.0333 98.5743L17.9506 90.7667L13.9509 90.809ZM14.1162 106.424L14.1989 114.232L18.1987 114.19L18.116 106.382L14.1162 106.424ZM14.2816 122.04L14.3642 129.847L18.364 129.805L18.2813 121.997L14.2816 122.04ZM14.4469 137.655L14.5296 145.462L18.5294 145.42L18.4467 137.612L14.4469 137.655ZM14.6123 153.27L14.6949 161.078L18.6947 161.035L18.612 153.228L14.6123 153.27ZM14.7776 168.885L14.8603 176.693L18.86 176.651L18.7774 168.843L14.7776 168.885ZM14.9429 184.501L15.0256 192.308L19.0254 192.266L18.9427 184.458L14.9429 184.501ZM15.1083 200.116L15.1496 204.02L19.1494 203.977L19.1081 200.074L15.1083 200.116Z" fill="#4C4D4F"/>
</g>
<defs>
<filter id="filter0_b" x="-3.72705" y="-3.15601" width="39.6249" height="213.31" filterUnits="userSpaceOnUse" color-interpolation-filters="sRGB">
<feFlood flood-opacity="0" result="BackgroundImageFix"/>
<feGaussianBlur in="BackgroundImage" stdDeviation="2"/>
<feComposite in2="SourceAlpha" operator="in" result="effect1_backgroundBlur"/>
<feBlend mode="normal" in="SourceGraphic" in2="effect1_backgroundBlur" result="shape"/>
</filter>
</defs>
</svg>
