<?xml version="1.0" encoding="UTF-8"?>
<!DOCTYPE svg PUBLIC "-//W3C//DTD SVG 1.1//EN" "http://www.w3.org/Graphics/SVG/1.1/DTD/svg11.dtd">
<!-- Creator: CorelDRAW X6 -->
<svg xmlns="http://www.w3.org/2000/svg" xml:space="preserve" width="210mm" height="297mm" version="1.1" style="shape-rendering:geometricPrecision; text-rendering:geometricPrecision; image-rendering:optimizeQuality; fill-rule:evenodd; clip-rule:evenodd"
viewBox="0 0 21000 29700"
 xmlns:xlink="http://www.w3.org/1999/xlink"
 data-name="Layer 1">
 <defs>
  <style type="text/css">
   <![CDATA[
    .fil0 {fill:#57585C}
   ]]>
  </style>
 </defs>
 <g id="Слой_x0020_1">
  <metadata id="CorelCorpID_0Corel-Layer"/>
  <path class="fil0" d="M1338 1751l178 0 0 -432 119 0 16 -149 -135 0 0 -75c0,-39 4,-60 59,-60l74 0 0 -149 -119 0c-143,0 -193,72 -193,194l0 89 -89 0 0 149 89 0 0 432zm112 362c-438,0 -794,-355 -794,-794 0,-438 355,-794 794,-794 438,0 794,355 794,794 0,438 -355,794 -794,794z"/>
 </g>
</svg>
