<?xml version="1.0" encoding="UTF-8"?>
<!DOCTYPE svg PUBLIC "-//W3C//DTD SVG 1.1//EN" "http://www.w3.org/Graphics/SVG/1.1/DTD/svg11.dtd">
<!-- Creator: CorelDRAW X6 -->
<svg xmlns="http://www.w3.org/2000/svg" xml:space="preserve" width="210mm" height="297mm" version="1.1" style="shape-rendering:geometricPrecision; text-rendering:geometricPrecision; image-rendering:optimizeQuality; fill-rule:evenodd; clip-rule:evenodd"
viewBox="0 0 21000 29700"
 xmlns:xlink="http://www.w3.org/1999/xlink"
 data-name="Layer 1">
 <defs>
  <style type="text/css">
   <![CDATA[
    .fil0 {fill:#57585C}
   ]]>
  </style>
 </defs>
 <g id="Слой_x0020_1">
  <metadata id="CorelCorpID_0Corel-Layer"/>
  <path class="fil0" d="M1472 883l0 0c13,0 27,0 40,0 17,0 31,-15 31,-32 0,-25 0,-51 0,-76 0,-18 -14,-33 -33,-33 -25,0 -51,0 -76,0 -18,0 -33,15 -33,33 0,25 0,51 0,76 0,4 1,8 2,11 5,13 17,22 32,22 12,0 25,0 37,0zm-245 33c-90,0 -162,72 -164,161 -1,92 72,164 160,166 91,2 165,-71 167,-160 2,-92 -72,-167 -163,-167zm-316 87l0 2c0,119 0,239 0,358 0,17 15,32 32,32 189,0 379,0 568,0 17,0 32,-15 32,-32 0,-119 0,-239 0,-358l0 -2 -77 0c11,35 14,70 10,106 -4,36 -16,70 -35,101 -19,31 -44,57 -74,77 -78,53 -180,58 -263,11 -42,-23 -75,-56 -98,-98 -34,-63 -40,-129 -20,-197 -26,0 -51,0 -77,0zm639 480c4,-1 8,-1 13,-2 33,-7 60,-35 66,-68 1,-4 1,-7 2,-11l0 -646c-1,-4 -1,-7 -2,-11 -7,-36 -37,-64 -74,-69 -2,0 -3,-1 -5,-1l-648 0c-4,1 -8,1 -12,2 -36,8 -62,37 -67,73 0,2 -1,3 -1,5l0 648c1,4 1,8 2,12 8,35 38,62 73,67 2,0 3,1 5,1l646 0zm-323 390c-438,0 -794,-355 -794,-794 0,-438 355,-794 794,-794 438,0 794,355 794,794 0,438 -355,794 -794,794z"/>
 </g>
</svg>
