<?xml version="1.0" encoding="UTF-8"?>
<!DOCTYPE svg PUBLIC "-//W3C//DTD SVG 1.1//EN" "http://www.w3.org/Graphics/SVG/1.1/DTD/svg11.dtd">
<!-- Creator: CorelDRAW X6 -->
<svg xmlns="http://www.w3.org/2000/svg" xml:space="preserve" width="210mm" height="297mm" version="1.1" style="shape-rendering:geometricPrecision; text-rendering:geometricPrecision; image-rendering:optimizeQuality; fill-rule:evenodd; clip-rule:evenodd"
viewBox="0 0 21000 29700"
 xmlns:xlink="http://www.w3.org/1999/xlink"
 data-name="Layer 1">
 <defs>
  <style type="text/css">
   <![CDATA[
    .fil0 {fill:#57585C}
   ]]>
  </style>
 </defs>
 <g id="Слой_x0020_1">
  <metadata id="CorelCorpID_0Corel-Layer"/>
  <g id="_704441792">
   <path class="fil0" d="M1282 1468c-100,40 -250,-12 -323,-65 -145,-106 -339,-484 -324,-516 23,-27 131,-17 171,-17 58,0 59,16 78,61 26,62 105,227 170,222 24,-40 22,-102 20,-157 -2,-64 -8,-96 -69,-107 12,-37 55,-47 102,-47 113,0 184,-17 184,75 0,56 -17,190 16,233 33,3 45,-17 69,-49 53,-71 119,-225 129,-229 1,-1 204,-10 247,8 14,90 -140,231 -172,298 -18,37 7,60 26,78 48,44 157,133 146,204 -42,29 -135,21 -199,21 -129,0 -191,-219 -246,-130 -18,30 -16,81 -24,116l0 0zm-850 -406c0,165 0,254 76,405 82,163 199,279 361,361 213,107 485,103 698,-4 582,-291 567,-1122 4,-1402 -47,-23 -78,-38 -133,-54 -376,-106 -757,63 -930,409 -34,67 -76,188 -76,285l0 0z"/>
  </g>
 </g>
</svg>
