<?xml version="1.0" encoding="UTF-8"?>
<!DOCTYPE svg PUBLIC "-//W3C//DTD SVG 1.1//EN" "http://www.w3.org/Graphics/SVG/1.1/DTD/svg11.dtd">
<!-- Creator: CorelDRAW X6 -->
<svg xmlns="http://www.w3.org/2000/svg" xml:space="preserve" width="210mm" height="297mm" version="1.1" style="shape-rendering:geometricPrecision; text-rendering:geometricPrecision; image-rendering:optimizeQuality; fill-rule:evenodd; clip-rule:evenodd"
viewBox="0 0 21000 29700"
 xmlns:xlink="http://www.w3.org/1999/xlink"
 data-name="Layer 1">
 <defs>
  <style type="text/css">
   <![CDATA[
    .fil0 {fill:#57585C}
   ]]>
  </style>
 </defs>
 <g id="Слой_x0020_1">
  <metadata id="CorelCorpID_0Corel-Layer"/>
  <path class="fil0" d="M1518 1458c-7,0 -13,2 -16,6 -3,4 -5,11 -5,21l0 24 41 0 0 -24c0,-10 -2,-17 -5,-21 -3,-4 -8,-6 -15,-6zm-159 -1c6,0 11,2 14,6 3,4 5,10 5,18l0 121c0,8 -1,13 -4,16 -3,3 -7,5 -12,5 -4,0 -8,-1 -11,-3 -4,-2 -7,-5 -11,-8l0 -146c3,-3 6,-6 10,-7 3,-2 6,-2 10,-2zm139 89l0 44c0,12 2,21 5,26 3,5 8,7 16,7 8,0 13,-2 16,-6 3,-4 5,-13 5,-27l0 -11 48 0 0 12c0,24 -6,42 -17,54 -12,12 -29,18 -52,18 -21,0 -37,-6 -49,-19 -12,-13 -18,-31 -18,-53l0 -105c0,-20 7,-37 20,-50 13,-13 30,-19 51,-19 21,0 37,6 49,18 11,12 17,29 17,51l0 60 -88 0 0 0zm-83 102c-7,9 -18,13 -31,13 -9,0 -17,-2 -24,-5 -7,-3 -14,-9 -20,-16l0 18 -47 0 0 -318 47 0 0 103c6,-7 13,-13 20,-16 7,-4 14,-6 21,-6 15,0 26,5 33,15 8,10 12,25 12,44l0 130c0,17 -4,29 -11,38zm-203 10l0 -26c-9,10 -17,17 -27,22 -9,5 -18,7 -27,7 -11,0 -19,-3 -24,-10 -5,-7 -8,-17 -8,-31l0 -196 46 0 0 180c0,6 1,10 3,12 2,3 5,4 9,4 3,0 8,-2 13,-5 5,-3 10,-7 14,-13l0 -178 46 0 0 235 -46 0 0 0zm-160 -272l0 272 -52 0 0 -272 -54 0 0 -46 160 0 0 46 -54 0zm214 -149c0,0 320,0 358,38 38,38 39,225 39,226 0,0 0,188 -39,226 -38,38 -358,39 -358,39 0,0 -320,-1 -358,-39 -38,-38 -38,-225 -38,-226 0,-1 0,-188 38,-226 38,-38 358,-38 358,-38zm252 -99l-52 0 0 -29c-9,11 -19,19 -30,24 -10,6 -20,8 -30,8 -12,0 -21,-4 -27,-12 -6,-8 -9,-19 -9,-35l0 -216 52 0 0 198c0,6 1,11 3,13 2,3 6,4 11,4 4,0 9,-2 15,-5 6,-4 11,-8 16,-14l0 -196 52 0 0 259 0 0zm-282 -44c4,4 9,6 16,6 7,0 13,-2 17,-6 4,-4 6,-9 6,-16l0 -141c0,-6 -2,-10 -6,-14 -4,-3 -10,-5 -17,-5 -6,0 -12,2 -16,5 -4,3 -6,8 -6,14l0 141c0,7 2,13 6,16zm-38 -203c14,-12 33,-18 56,-18 21,0 39,6 53,19 14,13 21,29 21,48l0 134c0,22 -7,39 -20,52 -14,13 -32,19 -56,19 -23,0 -41,-7 -55,-19 -14,-13 -20,-30 -20,-52l0 -134c0,-20 7,-36 21,-48zm-163 -103l-59 0 70 212 0 139 59 0 0 -146 68 -205 -60 0 -36 140 -4 0 -38 -140zm231 1270c-438,0 -794,-355 -794,-794 0,-438 355,-794 794,-794 438,0 794,355 794,794 0,438 -355,794 -794,794z"/>
 </g>
</svg>
